<!-- Generator: Adobe Illustrator 22.1.0, SVG Export Plug-In  -->
<svg version="1.1"
	 xmlns="http://www.w3.org/2000/svg" xmlns:xlink="http://www.w3.org/1999/xlink" xmlns:a="http://ns.adobe.com/AdobeSVGViewerExtensions/3.0/"
	 x="0px" y="0px" width="68px" height="58.9px" viewBox="0 0 68 58.9" style="enable-background:new 0 0 68 58.9;"
	 xml:space="preserve">
<style type="text/css">
	.st0{fill:#383838;}
	.st1{fill:#FFFFFF;}
</style>
<defs>
</defs>
<polygon id="rouge_1_" class="st0" points="51,0 17,0 0,29.4 17,58.9 51,58.9 68,29.4 "/>
<g>
	<g>
		<path class="st1" d="M43.2,10l-5.1,0c-5.5,0-9.1,3.7-9.1,9.4v4.1h-4.8c-0.4,0-0.8,0.3-0.8,0.8v6.4c0,0.4,0.3,0.8,0.8,0.8H29v15.8
			c0,0.4,0.3,0.8,0.8,0.8h6.4c0.4,0,0.8-0.3,0.8-0.8l0.4-15.8h5.6c0.4,0,0.8-0.3,0.8-0.8l0-6.4c0-0.2-0.1-0.4-0.2-0.6
			c-0.1-0.1-0.3-0.2-0.5-0.2h-5.6v-3.2c0-1.8,0.4-2.7,2.7-2.7l3.3,0c0.4,0,0.8-0.3,0.8-0.8v-6C44,10.4,43.7,10,43.2,10z"/>
	</g>
	<g>
	</g>
	<g>
	</g>
	<g>
	</g>
	<g>
	</g>
	<g>
	</g>
	<g>
	</g>
	<g>
	</g>
	<g>
	</g>
	<g>
	</g>
	<g>
	</g>
	<g>
	</g>
	<g>
	</g>
	<g>
	</g>
	<g>
	</g>
	<g>
	</g>
</g>
</svg>
