<!-- Generator: Adobe Illustrator 22.1.0, SVG Export Plug-In  -->
<svg version="1.1"
	 xmlns="http://www.w3.org/2000/svg" xmlns:xlink="http://www.w3.org/1999/xlink" xmlns:a="http://ns.adobe.com/AdobeSVGViewerExtensions/3.0/"
	 x="0px" y="0px" width="68px" height="58.9px" viewBox="0 0 68 58.9" style="enable-background:new 0 0 68 58.9;"
	 xml:space="preserve">
<style type="text/css">
	.st0{fill:#383838;}
	.st1{fill:#FFFFFF;}
</style>
<defs>
</defs>
<polygon id="rouge_1_" class="st0" points="51,0 17,0 0,29.4 17,58.9 51,58.9 68,29.4 "/>
<g>
	<g>
		<path class="st1" d="M48.8,14.2C48,13.4,47.1,13,46,13H23c-1.1,0-2,0.4-2.8,1.2C19.4,15,19,15.9,19,17v23c0,1.1,0.4,2,1.2,2.8
			C21,43.6,21.9,44,23,44h23c1.1,0,2-0.4,2.8-1.2c0.8-0.8,1.2-1.7,1.2-2.8V17C50,15.9,49.6,15,48.8,14.2z M30.1,24.2
			c1.2-1.2,2.7-1.8,4.4-1.8c1.7,0,3.2,0.6,4.4,1.8c1.2,1.2,1.8,2.6,1.8,4.3c0,1.7-0.6,3.1-1.8,4.3c-1.2,1.2-2.7,1.8-4.4,1.8
			c-1.7,0-3.2-0.6-4.4-1.8c-1.2-1.2-1.8-2.6-1.8-4.3C28.3,26.8,28.9,25.4,30.1,24.2z M46.5,39.3c0,0.3-0.1,0.6-0.4,0.9
			c-0.2,0.2-0.5,0.3-0.8,0.3H23.7c-0.3,0-0.6-0.1-0.9-0.4c-0.2-0.2-0.4-0.5-0.4-0.9v-13h2.8c-0.3,0.8-0.4,1.7-0.4,2.6
			c0,2.6,0.9,4.8,2.8,6.6c1.9,1.8,4.1,2.7,6.8,2.7c1.7,0,3.4-0.4,4.8-1.2c1.5-0.8,2.6-2,3.5-3.4c0.9-1.4,1.3-3,1.3-4.7
			c0-0.9-0.1-1.8-0.4-2.6h2.7L46.5,39.3L46.5,39.3L46.5,39.3z M46.5,21.2c0,0.4-0.1,0.7-0.4,1c-0.3,0.3-0.6,0.4-1,0.4h-3.5
			c-0.4,0-0.7-0.1-1-0.4c-0.3-0.3-0.4-0.6-0.4-1v-3.3c0-0.4,0.1-0.7,0.4-1c0.3-0.3,0.6-0.4,1-0.4h3.5c0.4,0,0.7,0.1,1,0.4
			c0.3,0.3,0.4,0.6,0.4,1V21.2z"/>
	</g>
	<g>
	</g>
	<g>
	</g>
	<g>
	</g>
	<g>
	</g>
	<g>
	</g>
	<g>
	</g>
	<g>
	</g>
	<g>
	</g>
	<g>
	</g>
	<g>
	</g>
	<g>
	</g>
	<g>
	</g>
	<g>
	</g>
	<g>
	</g>
	<g>
	</g>
</g>
</svg>
