<!-- Generator: Adobe Illustrator 22.1.0, SVG Export Plug-In  -->
<svg version="1.1"
	 xmlns="http://www.w3.org/2000/svg" xmlns:xlink="http://www.w3.org/1999/xlink" xmlns:a="http://ns.adobe.com/AdobeSVGViewerExtensions/3.0/"
	 x="0px" y="0px" width="68px" height="58.9px" viewBox="0 0 68 58.9" style="enable-background:new 0 0 68 58.9;"
	 xml:space="preserve">
<style type="text/css">
	.st0{fill:#383838;}
	.st1{fill:#FFFFFF;}
</style>
<defs>
</defs>
<polygon id="rouge_1_" class="st0" points="51,0 17,0 0,29.4 17,58.9 51,58.9 68,29.4 "/>
<g>
	<g>
		<path id="LinkedIn_2_" class="st1" d="M53,32.4V45h-7.3V33.3c0-2.9-1.1-4.9-3.7-4.9c-2,0-3.2,1.4-3.7,2.7
			c-0.2,0.5-0.2,1.1-0.2,1.8V45h-7.3c0,0,0.1-19.8,0-21.9h7.3v3.1c0,0,0,0,0,0.1h0v-0.1c1-1.5,2.7-3.6,6.6-3.6
			C49.4,22.6,53,25.8,53,32.4z M23.2,12.6c-2.5,0-4.1,1.6-4.1,3.8c0,2.1,1.6,3.8,4,3.8h0c2.5,0,4.1-1.7,4.1-3.8
			C27.2,14.2,25.7,12.6,23.2,12.6z M19.5,45h7.3V23.2h-7.3V45z"/>
	</g>
	<g>
	</g>
	<g>
	</g>
	<g>
	</g>
	<g>
	</g>
	<g>
	</g>
	<g>
	</g>
	<g>
	</g>
	<g>
	</g>
	<g>
	</g>
	<g>
	</g>
	<g>
	</g>
	<g>
	</g>
	<g>
	</g>
	<g>
	</g>
	<g>
	</g>
</g>
</svg>
