<!-- Generator: Adobe Illustrator 22.1.0, SVG Export Plug-In  -->
<svg version="1.1"
	 xmlns="http://www.w3.org/2000/svg" xmlns:xlink="http://www.w3.org/1999/xlink" xmlns:a="http://ns.adobe.com/AdobeSVGViewerExtensions/3.0/"
	 x="0px" y="0px" width="68px" height="58.9px" viewBox="0 0 68 58.9" style="enable-background:new 0 0 68 58.9;"
	 xml:space="preserve">
<style type="text/css">
	.st0{fill:#004464;}
	.st1{fill:#FFFFFF;}
</style>
<defs>
</defs>
<polygon id="rouge_1_" class="st0" points="51,0 17,0 0,29.4 17,58.9 51,58.9 68,29.4 "/>
<g>
	<path class="st1" d="M49.4,33.2L46,30.9v-0.1v-0.1c0.3-0.2,0.4-0.4,1-0.6l0,0v-0.6l0,0v-0.6l0,0l0,0v-0.1l0,0v-0.3v-0.2V28l0,0
		v-0.1v-0.2l0,0l0,0v-0.1v-0.1v-0.1v-0.1c-0.6-0.2-0.6-0.3-0.7-0.5l0,0l3.1-2.2c0.7-0.4,1-1.3,0.6-2l-2.5-4.3
		c-0.4-0.7-1.4-1-2.1-0.5L41.9,19h-0.1l0,0l-0.1,0.2c-0.1,0-0.1-0.1-0.2-0.1L41.4,20h-0.1l-0.1-2h-0.1L41,19l0,0h-0.1
		c-0.1-0.2-0.1-0.3-0.2-0.3l0,0c-0.1-0.1-0.2-0.1-0.4-0.2c-0.1,0-0.1-0.1-0.2-0.1c-0.2-0.1-0.6-0.4-0.6-0.4s-0.1,0-0.1,0
		c-0.3-0.2-0.7-0.3-1.1-0.5l0,0c0,0-0.1,0-0.1-0.1l-0.5-4c0-0.8-0.7-1.5-1.5-1.5H31c-0.8,0-1.4,0.7-1.4,1.4L29.2,17h-0.1H29
		c-0.1,0.2-0.4,1-0.4,1h-0.1c0,0-0.2-0.6-0.4-0.5l0,0l0,0c0,0-0.1,0-0.1,0.1c-0.1,0.1-0.2,0.1-0.3,0.2c-0.1,0-0.1,0.1-0.2,0.1
		L27.4,18l0,0l0,0l0,0c-0.2,0.1-0.5,0-0.5,0h-0.1h-0.1l0,0c-0.1,0.4-0.3,0.5-0.4,0h-0.1c-0.2,0.7-0.3,0.8-0.4,0.9c0,0-0.1,0-0.1,0.1
		c0,0-0.1,0-0.1,0.1l-3.5-1.5c-0.7-0.4-1.7-0.2-2.1,0.5l-2.7,4.4c-0.4,0.7-0.2,1.6,0.6,2l2.1,2.2v0.1v0.1c1,0.2,1,0.3,1,0.5v0.1V28
		l0,0l0,0v0.1v0.5v0.1v0.1v0.1V29v0.2v0.3v0.2l0,0v0.1v0.1v0.3l0,0c-0.1,0.2-0.1,0.3,0,0.5l0,0l-3.1,2.2c-0.7,0.4-1,1.3-0.6,2
		l2.5,4.3c0.4,0.7,1.4,1,2.1,0.5l3.5-1.5c0,0,0,0,0.1,0.1l0,0l0,0l0.1,0.1c0.1,0,0.1,0.1,0.2,0.1l0.1,0.1L26,38l0,0h0.1
		c0.1,0.7,0.2,1,0.2,1h-0.1c0,0,0,0,0.1,0c0.2,0.1,0.4,0.3,0.6,0.4c0,0,0.1,0,0.1,0.1c0.3,0.1,0.5,0.3,0.8,0.4l0,0
		c0.4,0.2,0.8,0.4,1.3,0.5l0.4,3.9c0,0.8,0.7,1.6,1.6,1.6h5c0,0,1.5-1.3,1.5-2.1L38,40h0.1h0.1c0.1,0.1,0.4,1,0.4,1h0.1
		c0,0,0.2-1.1,0.4-1.2l0,0l0,0l0,0c0,0,0.1,0,0.1-0.1c0.1,0,0.2-0.1,0.3-0.2c0.1,0,0.2-0.1,0.2-0.1s0.1,0,0.1-0.1l0,0l0,0l0,0
		c0.2-0.1,0.5-0.3,0.5-0.3l0,0h0.1c0.1-0.1,0.3-0.2,0.4-0.3l0,0c0.2-0.1,0.3-0.2,0.5-0.7h0.1l0.1,0.3l3.5,1.5
		c0.7,0.4,1.7,0.2,2.1-0.5l2.5-4.3C50.3,34.5,50.1,33.6,49.4,33.2z M33.5,34c-2.9,0-5.3-2.3-5.3-5.2s2.4-5.2,5.3-5.2
		s5.3,2.3,5.3,5.2S36.5,34,33.5,34z"/>
</g>
</svg>