<!-- Generator: Adobe Illustrator 22.1.0, SVG Export Plug-In  -->
<svg version="1.1"
	 xmlns="http://www.w3.org/2000/svg" xmlns:xlink="http://www.w3.org/1999/xlink" xmlns:a="http://ns.adobe.com/AdobeSVGViewerExtensions/3.0/"
	 x="0px" y="0px" width="68px" height="58.9px" viewBox="0 0 68 58.9" style="enable-background:new 0 0 68 58.9;"
	 xml:space="preserve">
<style type="text/css">
	.st0{fill:#383838;}
	.st1{fill:#FFFFFF;}
</style>
<defs>
</defs>
<polygon id="rouge_1_" class="st0" points="51,0 17,0 0,29.4 17,58.9 51,58.9 68,29.4 "/>
<g>
	<g>
		<g>
			<path class="st1" d="M51.8,18.5c-1.3,0.6-2.8,1-4.3,1.2c1.5-0.9,2.7-2.4,3.3-4.1c-1.4,0.9-3,1.5-4.7,1.8
				c-1.4-1.4-3.3-2.3-5.4-2.3c-4.1,0-7.4,3.3-7.4,7.4c0,0.6,0.1,1.2,0.2,1.7c-6.2-0.3-11.7-3.3-15.3-7.8c-0.6,1.1-1,2.4-1,3.7
				c0,2.6,1.3,4.9,3.3,6.2c-1.2,0-2.4-0.4-3.4-0.9v0.1c0,3.6,2.6,6.6,6,7.3c-0.6,0.2-1.3,0.3-2,0.3c-0.5,0-0.9,0-1.4-0.1
				c0.9,3,3.7,5.1,6.9,5.2c-2.5,2-5.8,3.2-9.2,3.2c-0.6,0-1.2,0-1.8-0.1c3.3,2.1,7.2,3.3,11.4,3.3c13.7,0,21.2-11.3,21.2-21.2l0-1
				C49.5,21.3,50.8,20,51.8,18.5z"/>
		</g>
	</g>
	<g>
	</g>
	<g>
	</g>
	<g>
	</g>
	<g>
	</g>
	<g>
	</g>
	<g>
	</g>
	<g>
	</g>
	<g>
	</g>
	<g>
	</g>
	<g>
	</g>
	<g>
	</g>
	<g>
	</g>
	<g>
	</g>
	<g>
	</g>
	<g>
	</g>
</g>
</svg>
