<!-- Generator: Adobe Illustrator 22.1.0, SVG Export Plug-In  -->
<svg version="1.1"
	 xmlns="http://www.w3.org/2000/svg" xmlns:xlink="http://www.w3.org/1999/xlink" xmlns:a="http://ns.adobe.com/AdobeSVGViewerExtensions/3.0/"
	 x="0px" y="0px" width="68px" height="58.9px" viewBox="0 0 68 58.9" style="enable-background:new 0 0 68 58.9;"
	 xml:space="preserve">
<style type="text/css">
	.st0{fill:#FFA100;}
	.st1{fill:#FFFFFF;}
</style>
<defs>
</defs>
<polygon id="rouge_2_" class="st0" points="51,0 17,0 0,29.4 17,58.9 51,58.9 68,29.4 "/>
<path class="st1" d="M41.4,28.7H28.8c-0.8,0-1.4-0.6-1.4-1.4V14.7c0-0.8,0.6-1.4,1.4-1.4h12.6c0.8,0,1.4,0.6,1.4,1.4v12.6
	C42.8,28.1,42.2,28.7,41.4,28.7z"/>
<path class="st0" d="M38.7,25.5h-7.2c-0.5,0-0.9-0.4-0.9-0.9v-7.2c0-0.5,0.4-0.9,0.9-0.9h7.2c0.5,0,0.9,0.4,0.9,0.9v7.2
	C39.6,25.1,39.2,25.5,38.7,25.5z"/>
<path class="st1" d="M51.7,43.8H18.5c-1,0-1.9-0.8-1.9-1.9V22.7c0-1,0.8-1.9,1.9-1.9h33.1c1,0,1.9,0.8,1.9,1.9v19.2
	C53.6,43,52.7,43.8,51.7,43.8z"/>
</svg>